<svg id="Layer_5" enable-background="new 0 0 64 64" height="512" viewBox="0 0 64 64" width="512" xmlns="http://www.w3.org/2000/svg" xmlns:xlink="http://www.w3.org/1999/xlink"><linearGradient id="SVGID_1_" gradientUnits="userSpaceOnUse" x1="31.793" x2="31.793" y1="63" y2="1.003"><stop offset="0" stop-color="#9f2fff"/><stop offset="1" stop-color="#0bb1d3"/></linearGradient><path d="m56 55c1.654 0 3-1.346 3-3s-1.346-3-3-3-3 1.346-3 3 1.346 3 3 3zm0-4c.551 0 1 .449 1 1s-.449 1-1 1-1-.449-1-1 .449-1 1-1zm-12-6c-1.654 0-3 1.346-3 3s1.346 3 3 3 3-1.346 3-3-1.346-3-3-3zm0 4c-.551 0-1-.449-1-1s.449-1 1-1 1 .449 1 1-.449 1-1 1zm3.039 7.725 4-14 1.923.55-4 14zm-9.969-5.381c.675 6.539 6.215 11.656 12.93 11.656 7.168 0 13-5.832 13-13 0-6.715-5.117-12.255-11.656-12.93l3.656-3.656v-21.828l-3.586-3.586h-1.884c-.655-1.048-1.489-2.099-2.46-3.07-3.015-3.015-7.295-5.144-9.291-3.15-1.374 1.374-.789 3.835.695 6.22h-8.888l-29 29 25.414 25.414zm23.93-1.344c0 6.065-4.935 11-11 11s-11-4.935-11-11 4.935-11 11-11 11 4.935 11 11zm-21.807-46.806c.658-.66 3.573.262 6.462 3.15.534.533 1.018 1.091 1.45 1.656h-6.195c-1.73-2.27-2.249-4.274-1.717-4.806zm-8.779 6.806h9.532c.314.369.642.728.984 1.07 1.344 1.344 2.802 2.412 4.202 3.099-.078.266-.132.541-.132.831 0 1.654 1.346 3 3 3s3-1.346 3-3-1.346-3-3-3c-.625 0-1.204.193-1.685.52-1.158-.517-2.431-1.408-3.611-2.52h7.882l2.414 2.414v20.172l-4.509 4.509c-5.963.694-10.702 5.433-11.396 11.396l-11.095 11.095-22.586-22.586zm16.586 5c0-.551.449-1 1-1s1 .449 1 1-.449 1-1 1-1-.449-1-1zm1.586 15-5.293-5.293 1.414-1.414 6.707 6.707-6.707 6.707-1.414-1.414zm-20.879-10.293-1.414-1.414 6.707-6.707 6.707 6.707-1.414 1.414-5.293-5.293zm-17.293 17.293 5.293 5.293-1.414 1.414-6.707-6.707 6.707-6.707 1.414 1.414zm15.586 18.414-6.707-6.707 1.414-1.414 5.293 5.293 5.293-5.293 1.414 1.414zm-12.414-18.414 12.414 12.414 19.414-19.414-12.414-12.414zm12.414 9.586-9.586-9.586 16.586-16.586 9.586 9.586zm6.707-23.293 7 7-1.414 1.414-7-7zm-3 3 6 6-1.414 1.414-6-6zm-3 3 6 6-1.414 1.414-6-6zm-3 3 6 6-1.414 1.414-6-6zm-3 3 7 7-1.414 1.414-7-7z" fill="url(#SVGID_1_)"/></svg>