<?xml version="1.0"?>
<svg xmlns="http://www.w3.org/2000/svg" viewBox="0 0 64 64" width="512" height="512"><g id="Giftbox"><path d="M61,14H51.89A6.993,6.993,0,1,0,41,5.413,6.993,6.993,0,1,0,30.11,14H21a1,1,0,0,0-1,1V25a1,1,0,0,0,1,1h2V43.969l-3,.75V43a1,1,0,0,0-1-1H11a1,1,0,0,0-1,1v1H3a1,1,0,0,0-1,1V59a1,1,0,0,0,1,1h7v1a1,1,0,0,0,1,1h8a1,1,0,0,0,1-1V59.618l1.286.643A7.028,7.028,0,0,0,24.417,61H39.393a7,7,0,0,0,3.5-.938l16.8-9.7A3.995,3.995,0,0,0,59,43.133V26h2a1,1,0,0,0,1-1V15A1,1,0,0,0,61,14ZM47,4a5,5,0,0,1,0,10H42V9A5.006,5.006,0,0,1,47,4ZM43,47.252,39,46.18V16h4ZM30,9A5,5,0,0,1,40,9v5H35A5.006,5.006,0,0,1,30,9Zm-8,7H37v8H22Zm3,10H37V45.644l-8.24-2.207a7,7,0,0,0-3.51-.03l-.25.062ZM4,58V46h6V58Zm14,2H12V44h6ZM59.414,45.9a2.009,2.009,0,0,1-.724,2.735l-16.8,9.7a5,5,0,0,1-2.5.67H24.417a5.036,5.036,0,0,1-2.237-.528L20,57.382v-10.6l5.735-1.434a5.009,5.009,0,0,1,2.507.021l14.92,4a2,2,0,1,1-1.036,3.863L30.2,50.034a1,1,0,0,0-.517,1.932l11.925,3.2a4.038,4.038,0,0,0,1.042.138,3.952,3.952,0,0,0,3.965-4.317l10.072-5.815A2.036,2.036,0,0,1,59.414,45.9ZM57,42.966a4.024,4.024,0,0,0-1.31.468l-9.751,5.629A4,4,0,0,0,45,48.077V26H57ZM60,24H45V16H60Z"/><path d="M15,58a1,1,0,0,0,1-1V56a1,1,0,0,0-2,0v1A1,1,0,0,0,15,58Z"/></g></svg>
