<svg id="_x33_0" enable-background="new 0 0 64 64" height="512" viewBox="0 0 64 64" width="512" xmlns="http://www.w3.org/2000/svg" xmlns:xlink="http://www.w3.org/1999/xlink"><linearGradient id="SVGID_1_" gradientUnits="userSpaceOnUse" x1="32" x2="32" y1="63" y2="1"><stop offset="0" stop-color="#9f2fff"/><stop offset="1" stop-color="#0bb1d3"/></linearGradient><path d="m60.78 9.116c.139-.346.22-.721.22-1.116 0-1.654-1.346-3-3-3l-5.556.001c.344-.591.556-1.269.556-2.001 0-1.103-.897-2-2-2h-7.343c-3.269 0-6.367 1.076-8.914 3.039-.342-.616-.991-1.039-1.743-1.039h-2c-1.103 0-2 .897-2 2h-16c0-1.103-.897-2-2-2h-2c-1.103 0-2 .897-2 2h-6v14h6v5.586l-1.414 1.414h-2.586c-1.103 0-2 .897-2 2v30c0 2.757 2.243 5 5 5h30c2.757 0 5-2.243 5-5v-30c0-1.103-.897-2-2-2h-2.586l-1.414-1.414v-4.109c1.953 1.607 4.433 2.523 7 2.523h12c1.654 0 3-1.346 3-3 0-.352-.072-.686-.184-1h1.184c1.654 0 3-1.346 3-3 0-.395-.081-.77-.22-1.116 1.275-.346 2.22-1.501 2.22-2.884s-.945-2.539-2.22-2.884zm-1.78-1.116c0 .551-.448 1-1 1h-12.535c-.338-.455-.72-.881-1.156-1.257.372-.461.922-.743 1.531-.743h3.16v.001l9-.001c.552 0 1 .449 1 1zm-31.414 18h-13.172l-1.414-1.414v-5.586h16v5.586zm1.414 1.414 1.414-1.414h3.172l1.414 1.414v1.586h-6zm4-22.414v19h-2v-19zm-4 2v10h-16v-10zm-18-2v19h-2v-19zm-8 12v-10h4v10zm4 10.414 1.414-1.414h3.172l1.414 1.414v1.586h-6zm29 33.586h-30c-.531 0-1.022-.15-1.455-.393l1.105-1.473c1.915-2.553 4.338-4.632 7.11-6.134h1.409c2.045 0 4.066.324 6 .931.604 2.938 3.21 5.069 6.213 5.069 1.257 0 2.474-.368 3.52-1.065l2.533-1.689-1.823-2.429c-1.323-1.764-3.428-2.817-5.632-2.817-.759 0-1.508.121-2.227.361l-1.986.663c-1.217-.382-2.463-.667-3.73-.833l1.917-.685c1.062-.379 2.063-.891 2.995-1.506h1.051c4.411 0 8-3.589 8-8v-4h-3c-3.859 0-7 3.141-7 7v3.237c-.839.572-1.752 1.041-2.719 1.386l-3.104 1.109c-.352.126-.693.273-1.037.414l1.472-1.962c.896-1.195 1.388-2.672 1.388-4.163 0-2.854-1.712-5.383-4.362-6.442l-1.879-.752-1.673 1.673c-1.345 1.345-2.086 3.133-2.086 5.035 0 2.486 1.324 4.826 3.457 6.105l1.543.926v.568c-3.107 1.646-5.817 3.955-7.95 6.8l-.846 1.129c-.127-.332-.204-.688-.204-1.063v-23h36v23c0 1.654-1.346 3-3 3zm-22.111-13.852c-.15-1.515-.457-3.011-.941-4.464l-1.896.633c.528 1.587.824 3.231.91 4.895l-.475-.285c-1.534-.921-2.487-2.604-2.487-4.392 0-1.368.533-2.653 1.5-3.621l.741-.74.654.262c1.886.753 3.105 2.553 3.105 4.585 0 1.062-.351 2.113-.987 2.963zm10.596 8.709 1.029-1.715c-.588-.353-1.196-.666-1.811-.962 1.93-.496 4.101.225 5.308 1.836l.554.738-.773.516c-.716.478-1.55.73-2.41.73-1.546 0-2.932-.829-3.705-2.093.616.289 1.222.599 1.808.95zm.658-13.372-.606 1.011c-.438.73-.959 1.4-1.536 2.016v-1.512c0-2.757 2.243-5 5-5h1v2c0 2.776-1.897 5.11-4.461 5.793.641-.695 1.221-1.449 1.712-2.267l.606-1.011zm11.857-11.485v-3h2v5h-36v-5h2v3h10v-3h12v3zm18-11c0 .551-.448 1-1 1h-12c-2.714 0-5.301-1.258-7-3.364v-11.195c2.355-2.215 5.409-3.441 8.657-3.441h7.343c0 1.103-.896 2-1.996 2h-3.164c-1.52 0-2.887.846-3.568 2.215-.55 1.101-1.656 1.785-2.885 1.785h-.387v2h.387c1.451 0 2.79-.593 3.758-1.603 1.171 1.083 1.855 2.604 1.855 4.228v5.375h9c.552 0 1 .449 1 1zm3-3h-11v-2h11c.552 0 1 .449 1 1s-.448 1-1 1zm2-4h-13.039c-.055-.69-.197-1.361-.426-2h13.465c.552 0 1 .449 1 1s-.448 1-1 1z" fill="url(#SVGID_1_)"/></svg>