<svg id="_x33_0" enable-background="new 0 0 64 64" height="512" viewBox="0 0 64 64" width="512" xmlns="http://www.w3.org/2000/svg" xmlns:xlink="http://www.w3.org/1999/xlink"><linearGradient id="SVGID_1_" gradientUnits="userSpaceOnUse" x1="32" x2="32" y1="63" y2="1"><stop offset="0" stop-color="#9f2fff"/><stop offset="1" stop-color="#0bb1d3"/></linearGradient><path d="m26 15c1.654 0 3-1.346 3-3v-4c0-1.654-1.346-3-3-3s-3 1.346-3 3v4c0 1.654 1.346 3 3 3zm-1-7c0-.551.448-1 1-1s1 .449 1 1v4c0 .551-.448 1-1 1s-1-.449-1-1zm8 3h1c1.654 0 3-1.346 3-3s-1.346-3-3-3h-3v10h2zm0-4h1c.552 0 1 .449 1 1s-.448 1-1 1h-1zm-16 8h-2v-10h2v4h2v-4h2v10h-2v-4h-2zm-6-3c0-.551-.448-1-1-1-1.654 0-3-1.346-3-3s1.346-3 3-3 3 1.346 3 3h-2c0-.551-.448-1-1-1s-1 .449-1 1 .448 1 1 1c1.654 0 3 1.346 3 3s-1.346 3-3 3-3-1.346-3-3h2c0 .551.448 1 1 1s1-.449 1-1zm24-11h-26c-3.309 0-6 2.691-6 6 0 1.058.282 2.083.821 3-.539.917-.821 1.942-.821 3 0 2.035 1.021 3.834 2.575 4.92l-4.575 11.894v2.186c0 1.654 1.346 3 3 3h1v28h58v-56h-22c0-3.309-2.691-6-6-6zm5.642 14h20.358v2h-21.531c.515-.576.909-1.257 1.173-2zm14.358-2v-4h2v4zm-2 0h-2v-4h2zm-4 0h-2v-4h2zm-4 0h-2v-4h2zm16 6v12h-18v-1.186l-.735-1.911c.716.675 1.675 1.097 2.735 1.097 2.206 0 4-1.794 4-4s-1.794-4-4-4c-2.101 0-3.81 1.634-3.969 3.694l-2.19-5.694zm-25 14c-.552 0-1-.449-1-1v-1h6v1c0 .551-.448 1-1 1zm-18.086-14-.834 10h-5.8l2.5-10zm18.784 0 3.846 10h-5.764l-2.5-10zm-6.478 0 2.5 10h-5.8l-.833-10zm-6.14 0 .833 10h-5.827l.833-10zm-13.08 12h6v1c0 .551-.448 1-1 1h-4c-.552 0-1-.449-1-1zm8 0h6v1c0 .551-.448 1-1 1h-4c-.552 0-1-.449-1-1zm8 0h6v1c0 .551-.448 1-1 1h-4c-.552 0-1-.449-1-1zm16-6c0-1.103.897-2 2-2s2 .897 2 2-.897 2-2 2-2-.897-2-2zm-37.18-15.603c-.536-.71-.82-1.54-.82-2.397 0-2.206 1.794-4 4-4h26c2.206 0 4 1.794 4 4 0 .857-.284 1.687-.82 2.397l-.455.603.455.603c.536.71.82 1.54.82 2.397 0 2.206-1.794 4-4 4h-26c-2.206 0-4-1.794-4-4 0-.857.284-1.687.82-2.397l.455-.603zm3.18 9.603h2.72l-2.5 10h-5.764l3.933-10.226c.514.143 1.052.226 1.611.226zm-6 13v-1h6v1c0 .551-.448 1-1 1h-4c-.552 0-1-.449-1-1zm4 3h1c.771 0 1.468-.301 2-.78.532.48 1.229.78 2 .78h4c.771 0 1.468-.301 2-.78.532.48 1.229.78 2 .78h4c.771 0 1.468-.301 2-.78.532.48 1.229.78 2 .78h4c.771 0 1.468-.301 2-.78.532.48 1.229.78 2 .78h1v26h-2v-24h-26v24h-2zm16 4h10v22h-10zm-2 22h-10v-22h10zm18 0v-26h1c1.302 0 2.402-.839 2.816-2h18.184v28zm22-48h-2v-4h2zm-20-4v4c0-1.058-.282-2.083-.821-3 .188-.32.333-.657.458-1zm14 20c2.206 0 4-1.794 4-4s-1.794-4-4-4-4 1.794-4 4 1.794 4 4 4zm0-6c1.103 0 2 .897 2 2s-.897 2-2 2-2-.897-2-2 .897-2 2-2zm-14 34h18v-20h-18zm16-2h-6v-7h2v-2h-2v-7h6zm-14-16h6v7h-2v2h2v7h-6zm-24 13h-2v-4h2zm8-4v4h-2v-4z" fill="url(#SVGID_1_)"/></svg>